HIERARCHY
ROOT Hips
{
  OFFSET 54.7727 57.4377 -8.37502
  CHANNELS 6 Xposition Yposition Zposition Zrotation Xrotation Yrotation
  JOINT spine
  {
    OFFSET 0 6.84637 0.3937
    CHANNELS 3 Zrotation Xrotation Yrotation
    JOINT spine1
    {
      OFFSET 0 9.49621 0
      CHANNELS 3 Zrotation Xrotation Yrotation
      JOINT spine2
      {
        OFFSET 0 9.09909 0
        CHANNELS 3 Zrotation Xrotation Yrotation
        JOINT Neck
        {
          OFFSET 0 23.3612 1.11378
          CHANNELS 3 Zrotation Xrotation Yrotation
          JOINT Head
          {
            OFFSET 0 7.05802 0
            CHANNELS 3 Zrotation Xrotation Yrotation
            End Site
            {
              OFFSET 0 17.0844 -5.63419
            }
          }
        }
        JOINT RightShoulder
        {
          OFFSET -3.83136 9.82631 -0.533491
          CHANNELS 3 Zrotation Xrotation Yrotation
          JOINT RightArm
          {
            OFFSET 0 12.8881 0
            CHANNELS 3 Zrotation Xrotation Yrotation
            JOINT RightArmRoll
            {
              OFFSET 0 6.50617 0
              CHANNELS 3 Zrotation Xrotation Yrotation
              JOINT RightForeArm
              {
                OFFSET 0 18.9501 0
                CHANNELS 3 Zrotation Xrotation Yrotation
                JOINT RightForeArmRoll
                {
                  OFFSET 0 7.30093 0
                  CHANNELS 3 Zrotation Xrotation Yrotation
                  JOINT RightHand
                  {
                    OFFSET 0 14.6514 0
                    CHANNELS 3 Zrotation Xrotation Yrotation
                    End Site
                    {
                      OFFSET 0 0 0
                    }
                  }
                }
              }
            }
          }
        }
        JOINT LeftShoulder
        {
          OFFSET 3.83136 9.82631 -0.533491
          CHANNELS 3 Zrotation Xrotation Yrotation
          JOINT LeftArm
          {
            OFFSET 0 12.8881 0
            CHANNELS 3 Zrotation Xrotation Yrotation
            JOINT LeftArmRoll
            {
              OFFSET 0 6.50617 0
              CHANNELS 3 Zrotation Xrotation Yrotation
              JOINT LeftForeArm
              {
                OFFSET 0 18.9501 0
                CHANNELS 3 Zrotation Xrotation Yrotation
                JOINT LeftForeArmRoll
                {
                  OFFSET 0 7.30093 0
                  CHANNELS 3 Zrotation Xrotation Yrotation
                  JOINT LeftHand
                  {
                    OFFSET 0 14.6514 0
                    CHANNELS 3 Zrotation Xrotation Yrotation
                    End Site
                    {
                      OFFSET 0 0 0
                    }
                  }
                }
              }
            }
          }
        }
      }
    }
  }
  JOINT RightUpLeg
  {
    OFFSET -6.06837 -1.11278 -0.933477
    CHANNELS 3 Zrotation Xrotation Yrotation
    JOINT RightUpLegRoll
    {
      OFFSET 0 17.1796 0
      CHANNELS 3 Zrotation Xrotation Yrotation
      JOINT RightLeg
      {
        OFFSET 0 -21.2743 0
        CHANNELS 3 Zrotation Xrotation Yrotation
        JOINT RightLegRoll
        {
          OFFSET 0 21.3439 0
          CHANNELS 3 Zrotation Xrotation Yrotation
          JOINT RightFoot
          {
            OFFSET 0 17.7652 0
            CHANNELS 3 Zrotation Xrotation Yrotation
            JOINT RightToeBase
            {
              OFFSET 0 14.8508 0
              CHANNELS 3 Zrotation Xrotation Yrotation
              End Site
              {
                OFFSET 0.0062947 7.19214 -0.829004
              }
            }
          }
        }
      }
    }
  }
  JOINT LeftUpLeg
  {
    OFFSET 6.06837 -1.11278 -0.933477
    CHANNELS 3 Zrotation Xrotation Yrotation
    JOINT LeftUpLegRoll
    {
      OFFSET 0 17.1797 0
      CHANNELS 3 Zrotation Xrotation Yrotation
      JOINT LeftLeg
      {
        OFFSET 0 21.2742 0
        CHANNELS 3 Zrotation Xrotation Yrotation
        JOINT LeftLegRoll
        {
          OFFSET 0 21.5412 0
          CHANNELS 3 Zrotation Xrotation Yrotation
          JOINT LeftFoot
          {
            OFFSET 0 17.5679 0
            CHANNELS 3 Zrotation Xrotation Yrotation
            JOINT LeftToeBase
            {
              OFFSET 0 14.8508 0
              CHANNELS 3 Zrotation Xrotation Yrotation
              End Site
              {
                OFFSET -0.0282102 7.19214 -0.829004
              }
            }
          }
        }
      }
    }
  }
}
MOTION
Frames: 11
Frame Time: 0.00208333
56.4631 91.7779 35.2154 0.863948 -2.74258 -0.8561 0.0576416 -1.87121 -0.112821 0.0849924 0.260322 -0.229139 0.0877734 1.90538 -0.230635 -4.57571 28.6355 2.63458 1.88632 -10.3796 1.00702 73.3693 8.79673 2.32558 101.278 13.5728 9.04922 7.09226e-006 -7.60243e-008 -2.03775e-006 13.0892 3.28713 -0.943541 4.75027e-006 2.24837e-006 -2.99999 8.02887 -4.95149 0.69769 -67.3415 2.0393 -0.0764861 -110.469 18.1305 -18.5675 -4.13636e-006 7.54153e-007 1.47015e-006 -10.0458 0.0849652 0.957059 -3.97667e-006 1.75052e-007 3.12132 -8.02898 -4.95146 -0.697688 174.946 1.56012 1.88051 180 7.01546e-015 178.92 177.407 6.10571 179.952 -7.93365e-007 3.1421e-006 0.0623473 -18.5031 67.739 19.3227 8.13649 25.2327 -3.48774 -177.074 -2.45386 0.825406 4.54188e-006 -4.6773e-006 -1.13858 -1.65249 -4.94721 0.067797 -6.43784e-007 7.63522e-007 -0.0411931 18.5196 67.7047 -19.2905 -8.13649 25.2327 3.48774 
56.4646 91.7756 35.2021 0.858289 -2.73338 -0.84598 0.0589359 -1.86523 -0.114592 0.089565 0.272274 -0.231046 0.0923713 1.91733 -0.232621 -4.61109 28.6538 2.64993 1.91023 -10.4153 1.01139 73.3606 8.82229 2.33882 101.298 13.575 9.0334 7.09226e-006 -7.60243e-008 -2.03775e-006 13.0981 3.27028 -0.940638 4.75027e-006 2.24837e-006 -2.99999 8.02887 -4.95149 0.69769 -67.35 2.05495 -0.0833934 -110.455 18.1538 -18.5391 -4.13636e-006 7.54153e-007 1.47015e-006 -10.0673 0.0849561 0.956957 -3.97667e-006 1.75052e-007 3.12132 -8.02898 -4.95146 -0.697688 174.957 1.57975 1.87116 180 7.01546e-015 178.92 177.412 6.10647 179.952 -7.93365e-007 3.1421e-006 0.0621661 -18.4974 67.732 19.3165 8.13649 25.2327 -3.48774 -177.062 -2.42484 0.815703 4.54188e-006 -4.6773e-006 -1.13826 -1.65915 -4.95854 0.0672837 -6.43784e-007 7.63522e-007 -0.0411738 18.5212 67.7067 -19.2924 -8.13649 25.2327 3.48774 
56.4513 91.7787 35.1874 0.852452 -2.72485 -0.835646 0.0602525 -1.85926 -0.116464 0.0942537 0.2842 -0.233035 0.0970863 1.92926 -0.23469 -4.64705 28.673 2.66566 1.93448 -10.4515 1.01593 73.3525 8.84864 2.35229 101.318 13.5765 9.01884 7.09226e-006 -7.60243e-008 -2.03775e-006 13.1064 3.25246 -0.937627 4.75027e-006 2.24837e-006 -2.99999 8.02887 -4.95149 0.69769 -67.3595 2.07128 -0.0905064 -110.441 18.1765 -18.5123 -4.13636e-006 7.54153e-007 1.47015e-006 -10.0877 0.0849456 0.956789 -3.97667e-006 1.75052e-007 3.12132 -8.02898 -4.95146 -0.697688 174.967 1.59799 1.86174 180 7.01546e-015 178.92 177.416 6.10638 179.951 -7.93365e-007 3.1421e-006 0.0619785 -18.4915 67.7248 19.31 8.13649 25.2327 -3.48774 -177.049 -2.39684 0.805731 4.54188e-006 -4.6773e-006 -1.13797 -1.66591 -4.96972 0.0667344 -6.43784e-007 7.63522e-007 -0.0411451 18.5228 67.7087 -19.2945 -8.13649 25.2327 3.48774 
56.4624 91.8722 35.1731 0.846488 -2.7168 -0.825161 0.0615848 -1.8533 -0.118405 0.0990238 0.296106 -0.235081 0.101883 1.94117 -0.236817 -4.68342 28.6928 2.68166 1.95896 -10.4879 1.02058 73.3448 8.87552 2.36594 101.337 13.5774 9.00517 7.09226e-006 -7.60243e-008 -2.03775e-006 13.1142 3.23397 -0.934541 4.75027e-006 2.24837e-006 -2.99999 8.02887 -4.95149 0.69769 -67.3697 2.08808 -0.0977633 -110.426 18.1987 -18.4866 -4.13636e-006 7.54153e-007 1.47015e-006 -10.1075 0.0849342 0.956574 -3.97667e-006 1.75052e-007 3.12132 -8.02898 -4.95146 -0.697688 174.978 1.61525 1.85229 180 7.01546e-015 178.92 177.421 6.10571 179.951 -7.93365e-007 3.1421e-006 0.0617864 -18.4855 67.7174 19.3035 8.13649 25.2327 -3.48774 -177.037 -2.36955 0.795571 4.54188e-006 -4.6773e-006 -1.13769 -1.67274 -4.98079 0.0661599 -6.43784e-007 7.63522e-007 -0.0411097 18.5245 67.7108 -19.2966 -8.13649 25.2327 3.48774 
56.4536 91.8592 35.1554 0.84045 -2.70901 -0.814589 0.0629263 -1.84735 -0.120386 0.103841 0.308002 -0.23716 0.106728 1.95307 -0.238978 -4.72003 28.713 2.69782 1.98359 -10.5245 1.02529 73.3372 8.90271 2.37968 101.356 13.5779 8.992 7.09226e-006 -7.60243e-008 -2.03775e-006 13.1219 3.2151 -0.931411 4.75027e-006 2.24837e-006 -2.99999 8.02887 -4.95149 0.69769 -67.3804 2.10517 -0.105103 -110.411 18.2207 -18.4616 -4.13636e-006 7.54153e-007 1.47015e-006 -10.1268 0.0849222 0.956332 -3.97667e-006 1.75052e-007 3.12132 -8.02898 -4.95146 -0.697688 174.989 1.63196 1.84281 180 7.01546e-015 178.92 177.426 6.1047 179.95 -7.93365e-007 3.1421e-006 0.0615918 -18.4794 67.7099 19.2968 8.13649 25.2327 -3.48774 -177.024 -2.34267 0.785304 4.54188e-006 -4.6773e-006 -1.13742 -1.6796 -4.99179 0.065571 -6.43784e-007 7.63522e-007 -0.0410707 18.5262 67.7129 -19.2988 -8.13649 25.2327 3.48774 
56.4475 91.7826 35.1351 0.834392 -2.70129 -0.803997 0.0642705 -1.8414 -0.122376 0.10867 0.319895 -0.239247 0.111585 1.96496 -0.241147 -4.75671 28.7333 2.71402 2.00826 -10.5611 1.03002 73.3297 8.92997 2.39346 101.376 13.5784 8.97897 7.09226e-006 -7.60243e-008 -2.03775e-006 13.1295 3.19612 -0.928271 4.75027e-006 2.24837e-006 -2.99999 8.02887 -4.95149 0.69769 -67.3911 2.12232 -0.112463 -110.395 18.2426 -18.4367 -4.13636e-006 7.54153e-007 1.47015e-006 -10.1461 0.0849101 0.956083 -3.97667e-006 1.75052e-007 3.12132 -8.02898 -4.95146 -0.697688 175 1.64853 1.83333 180 7.01546e-015 178.921 177.431 6.1036 179.95 -7.93365e-007 3.1421e-006 0.0613964 -18.4733 67.7025 19.2902 8.13649 25.2327 -3.48774 -177.011 -2.3159 0.77501 4.54188e-006 -4.6773e-006 -1.13716 -1.68648 -5.00277 0.0649785 -6.43784e-007 7.63522e-007 -0.0410306 18.528 67.715 -19.301 -8.13649 25.2327 3.48774 
56.451 91.8134 35.1172 0.828366 -2.69343 -0.793448 0.0656106 -1.83545 -0.124347 0.113478 0.331793 -0.241317 0.11642 1.97686 -0.2433 -4.79329 28.7533 2.73016 2.03286 -10.5977 1.03472 73.322 8.95709 2.40718 101.395 13.5791 8.96568 7.09226e-006 -7.60243e-008 -2.03775e-006 13.1373 3.17734 -0.925152 4.75027e-006 2.24837e-006 -2.99999 8.02887 -4.95149 0.69769 -67.4017 2.13933 -0.119782 -110.38 18.2646 -18.4115 -4.13636e-006 7.54153e-007 1.47015e-006 -10.1656 0.0848983 0.955848 -3.97667e-006 1.75052e-007 3.12132 -8.02898 -4.95146 -0.697688 175.011 1.66538 1.82386 180 7.01546e-015 178.921 177.436 6.10267 179.949 -7.93365e-007 3.1421e-006 0.0612024 -18.4673 67.695 19.2836 8.13649 25.2327 -3.48774 -176.998 -2.28892 0.76477 4.54188e-006 -4.6773e-006 -1.13689 -1.69334 -5.01379 0.0643931 -6.43784e-007 7.63522e-007 -0.0409925 18.5297 67.7171 -19.3031 -8.13649 25.2327 3.48774 
56.4435 91.7823 35.0947 0.822425 -2.68524 -0.783006 0.0669402 -1.82949 -0.126269 0.118228 0.343705 -0.243347 0.121197 1.98877 -0.245411 -4.8296 28.773 2.74611 2.0573 -10.634 1.03935 73.3141 8.98381 2.42079 101.414 13.5801 8.95175 7.09226e-006 -7.60243e-008 -2.03775e-006 13.1453 3.15904 -0.922088 4.75027e-006 2.24837e-006 -2.99999 8.02887 -4.95149 0.69769 -67.4117 2.156 -0.126998 -110.366 18.287 -18.3855 -4.13636e-006 7.54153e-007 1.47015e-006 -10.1855 0.0848871 0.955646 -3.97667e-006 1.75052e-007 3.12132 -8.02898 -4.95146 -0.697688 175.021 1.68292 1.81442 180 7.01546e-015 178.921 177.441 6.10217 179.949 -7.93365e-007 3.1421e-006 0.0610116 -18.4613 67.6877 19.2771 8.13649 25.2327 -3.48774 -176.985 -2.26143 0.754667 4.54188e-006 -4.6773e-006 -1.13661 -1.70015 -5.02488 0.0638258 -6.43784e-007 7.63522e-007 -0.0409591 18.5314 67.7191 -19.3052 -8.13649 25.2327 3.48774 
56.4343 91.7886 35.067 0.816622 -2.67651 -0.772737 0.0682526 -1.82352 -0.12811 0.122887 0.355639 -0.245312 0.125883 2.00071 -0.247455 -4.86547 28.7919 2.76176 2.08149 -10.6701 1.04385 73.3058 9.00991 2.43421 101.434 13.5818 8.93681 7.09226e-006 -7.60243e-008 -2.03775e-006 13.1537 3.14152 -0.919111 4.75027e-006 2.24837e-006 -2.99999 8.02887 -4.95149 0.69769 -67.4208 2.17213 -0.134051 -110.352 18.3099 -18.3581 -4.13636e-006 7.54153e-007 1.47015e-006 -10.2063 0.0848771 0.955498 -3.97667e-006 1.75052e-007 3.12132 -8.02898 -4.95146 -0.697688 175.032 1.70158 1.80502 180 7.01547e-015 178.921 177.445 6.10234 179.948 -7.93365e-007 3.1421e-006 0.0608259 -18.4555 67.6806 19.2707 8.13649 25.2327 -3.48774 -176.973 -2.23312 0.744779 4.54188e-006 -4.6773e-006 -1.13631 -1.70688 -5.03611 0.0632872 -6.43784e-007 7.63522e-007 -0.0409332 18.533 67.7211 -19.3073 -8.13649 25.2327 3.48774 
56.4305 91.7877 35.0469 0.81101 -2.66704 -0.762705 0.069541 -1.81754 -0.129841 0.12742 0.367601 -0.247187 0.130441 2.01267 -0.249407 -4.90071 28.8098 2.77701 2.10531 -10.7057 1.04817 73.2968 9.03516 2.44737 101.454 13.5844 8.92047 7.09226e-006 -7.60243e-008 -2.03775e-006 13.1628 3.12505 -0.916253 4.75027e-006 2.24837e-006 -2.99999 8.02887 -4.95149 0.69769 -67.4288 2.1875 -0.140877 -110.339 18.3334 -18.329 -4.13636e-006 7.54153e-007 1.47015e-006 -10.2281 0.0848686 0.955423 -3.97667e-006 1.75052e-007 3.12132 -8.02898 -4.95146 -0.697688 175.042 1.72177 1.7957 180 7.01547e-015 178.921 177.45 6.10344 179.948 -7.93365e-007 3.1421e-006 0.0606473 -18.4499 67.6736 19.2646 8.13649 25.2327 -3.48774 -176.96 -2.20369 0.735188 4.54188e-006 -4.6773e-006 -1.13597 -1.71351 -5.04751 0.0627881 -6.43784e-007 7.63522e-007 -0.0409176 18.5345 67.723 -19.3092 -8.13649 25.2327 3.48774 
56.4361 91.7819 35.0188 0.80564 -2.65663 -0.752974 0.0707991 -1.81154 -0.131433 0.131793 0.379602 -0.248947 0.134837 2.02467 -0.251243 -4.93517 28.8265 2.79174 2.12866 -10.7408 1.05228 73.2872 9.05933 2.4602 101.475 13.588 8.90236 7.09226e-006 -7.60243e-008 -2.03775e-006 13.1726 3.10993 -0.913547 4.75027e-006 2.24837e-006 -2.99999 8.02887 -4.95149 0.69769 -67.4352 2.20191 -0.147416 -110.327 18.3578 -18.2975 -4.13636e-006 7.54153e-007 1.47015e-006 -10.2514 0.0848619 0.955441 -3.97667e-006 1.75052e-007 3.12132 -8.02898 -4.95146 -0.697688 175.052 1.7439 1.78646 180 7.01547e-015 178.921 177.455 6.10573 179.947 -7.93365e-007 3.1421e-006 0.0604777 -18.4445 67.6669 19.2588 8.13649 25.2327 -3.48774 -176.948 -2.17284 0.725976 4.54188e-006 -4.6773e-006 -1.1356 -1.71999 -5.05914 0.0623394 -6.43784e-007 7.63522e-007 -0.0409153 18.536 67.7248 -19.3111 -8.13649 25.2327 3.48774 
